<svg id="Layer_1" data-name="Layer 1" xmlns="http://www.w3.org/2000/svg" viewBox="0 0 25.14 30.03"><defs><style>.cls-1,.cls-3{fill:#4290a5;}.cls-2{fill:#fff;}.cls-3{font-size:3.72px;font-family:OCR A Std;}</style></defs><title>StorageSystem</title><path class="cls-1" d="M289,424.28l-3.43-2.11a1.08,1.08,0,0,1-.51-0.92v-0.9a1.08,1.08,0,0,1,1.65-.92l3.43,2.11a1.08,1.08,0,0,1,.51.92v0.9A1.08,1.08,0,0,1,289,424.28Z" transform="translate(-285.07 -405.93)"/><path class="cls-1" d="M292.3,424.28l3.43-2.11a1.08,1.08,0,0,0,.51-0.92v-0.9a1.08,1.08,0,0,0-1.65-.92l-3.43,2.11a1.08,1.08,0,0,0-.51.92v0.9A1.08,1.08,0,0,0,292.3,424.28Z" transform="translate(-285.07 -405.93)"/><path class="cls-1" d="M290.09,420.65l-3.53-2.17a1.08,1.08,0,0,1,0-1.84l3.53-2.17a1.08,1.08,0,0,1,1.13,0l3.53,2.17a1.08,1.08,0,0,1,0,1.84l-3.53,2.17A1.08,1.08,0,0,1,290.09,420.65Z" transform="translate(-285.07 -405.93)"/><polygon class="cls-2" points="9.78 15.06 6.98 16.78 6.98 15.93 9.78 14.21 9.78 15.06"/><path class="cls-1" d="M303,424.28l-3.43-2.11a1.08,1.08,0,0,1-.51-0.92v-0.9a1.08,1.08,0,0,1,1.65-.92l3.43,2.11a1.08,1.08,0,0,1,.51.92v0.9A1.08,1.08,0,0,1,303,424.28Z" transform="translate(-285.07 -405.93)"/><path class="cls-1" d="M306.27,424.28l3.43-2.11a1.08,1.08,0,0,0,.51-0.92v-0.9a1.08,1.08,0,0,0-1.65-.92l-3.43,2.11a1.08,1.08,0,0,0-.51.92v0.9A1.08,1.08,0,0,0,306.27,424.28Z" transform="translate(-285.07 -405.93)"/><path class="cls-1" d="M304.06,420.65l-3.53-2.17a1.08,1.08,0,0,1,0-1.84l3.53-2.17a1.08,1.08,0,0,1,1.13,0l3.53,2.17a1.08,1.08,0,0,1,0,1.84l-3.53,2.17A1.08,1.08,0,0,1,304.06,420.65Z" transform="translate(-285.07 -405.93)"/><polygon class="cls-2" points="23.74 15.06 20.95 16.78 20.95 15.93 23.74 14.21 23.74 15.06"/><path class="cls-1" d="M296,415.9l-3.43-2.11a1.08,1.08,0,0,1-.51-0.92V412a1.08,1.08,0,0,1,1.65-.92l3.43,2.11a1.08,1.08,0,0,1,.51.92V415A1.08,1.08,0,0,1,296,415.9Z" transform="translate(-285.07 -405.93)"/><path class="cls-1" d="M299.29,415.9l3.43-2.11a1.08,1.08,0,0,0,.51-0.92V412a1.08,1.08,0,0,0-1.65-.92l-3.43,2.11a1.08,1.08,0,0,0-.51.92V415A1.08,1.08,0,0,0,299.29,415.9Z" transform="translate(-285.07 -405.93)"/><path class="cls-1" d="M297.07,412.27l-3.53-2.17a1.08,1.08,0,0,1,0-1.84l3.53-2.17a1.08,1.08,0,0,1,1.13,0l3.53,2.17a1.08,1.08,0,0,1,0,1.84l-3.53,2.17A1.08,1.08,0,0,1,297.07,412.27Z" transform="translate(-285.07 -405.93)"/><polygon class="cls-2" points="16.76 6.69 13.96 8.4 13.96 7.55 16.76 5.83 16.76 6.69"/><text class="cls-3" transform="translate(2.79 23.55)">storage</text><text class="cls-3" transform="translate(4.13 29.14)">system</text></svg>