<svg id="Layer_1" data-name="Layer 1" xmlns="http://www.w3.org/2000/svg" viewBox="0 0 30 22.09"><defs><style>.cls-1{fill:#4290a5;}.cls-2{fill:#fff;}</style></defs><title>StorageSystem2</title><path class="cls-1" d="M287.34,431.8l-4.09-2.52a1.29,1.29,0,0,1-.61-1.1v-1.08a1.29,1.29,0,0,1,2-1.1l4.09,2.52a1.29,1.29,0,0,1,.61,1.1v1.08A1.29,1.29,0,0,1,287.34,431.8Z" transform="translate(-282.64 -409.9)"/><path class="cls-1" d="M291.27,431.8l4.09-2.52a1.29,1.29,0,0,0,.61-1.1v-1.08a1.29,1.29,0,0,0-2-1.1l-4.09,2.52a1.29,1.29,0,0,0-.61,1.1v1.08A1.29,1.29,0,0,0,291.27,431.8Z" transform="translate(-282.64 -409.9)"/><path class="cls-1" d="M288.63,427.46l-4.21-2.59a1.29,1.29,0,0,1,0-2.19l4.21-2.59a1.29,1.29,0,0,1,1.35,0l4.21,2.59a1.29,1.29,0,0,1,0,2.19L290,427.46A1.29,1.29,0,0,1,288.63,427.46Z" transform="translate(-282.64 -409.9)"/><polygon class="cls-2" points="11.67 17.98 8.33 20.03 8.33 19.01 11.67 16.95 11.67 17.98"/><path class="cls-1" d="M304,431.8l-4.09-2.52a1.29,1.29,0,0,1-.61-1.1v-1.08a1.29,1.29,0,0,1,2-1.1l4.09,2.52a1.29,1.29,0,0,1,.61,1.1v1.08A1.29,1.29,0,0,1,304,431.8Z" transform="translate(-282.64 -409.9)"/><path class="cls-1" d="M307.94,431.8l4.09-2.52a1.29,1.29,0,0,0,.61-1.1v-1.08a1.29,1.29,0,0,0-2-1.1l-4.09,2.52a1.29,1.29,0,0,0-.61,1.1v1.08A1.29,1.29,0,0,0,307.94,431.8Z" transform="translate(-282.64 -409.9)"/><path class="cls-1" d="M305.3,427.46l-4.21-2.59a1.29,1.29,0,0,1,0-2.19l4.21-2.59a1.29,1.29,0,0,1,1.35,0l4.21,2.59a1.29,1.29,0,0,1,0,2.19l-4.21,2.59A1.29,1.29,0,0,1,305.3,427.46Z" transform="translate(-282.64 -409.9)"/><polygon class="cls-2" points="28.33 17.98 25 20.03 25 19.01 28.33 16.95 28.33 17.98"/><path class="cls-1" d="M295.68,421.8l-4.09-2.52a1.29,1.29,0,0,1-.61-1.1v-1.08a1.29,1.29,0,0,1,2-1.1l4.09,2.52a1.29,1.29,0,0,1,.61,1.1v1.08A1.29,1.29,0,0,1,295.68,421.8Z" transform="translate(-282.64 -409.9)"/><path class="cls-1" d="M299.6,421.8l4.09-2.52a1.29,1.29,0,0,0,.61-1.1v-1.08a1.29,1.29,0,0,0-2-1.1l-4.09,2.52a1.29,1.29,0,0,0-.61,1.1v1.08A1.29,1.29,0,0,0,299.6,421.8Z" transform="translate(-282.64 -409.9)"/><path class="cls-1" d="M297,417.46l-4.21-2.59a1.29,1.29,0,0,1,0-2.19l4.21-2.59a1.29,1.29,0,0,1,1.35,0l4.21,2.59a1.29,1.29,0,0,1,0,2.19l-4.21,2.59A1.29,1.29,0,0,1,297,417.46Z" transform="translate(-282.64 -409.9)"/><polygon class="cls-2" points="20 7.98 16.67 10.03 16.67 9.01 20 6.96 20 7.98"/></svg>